<?xml version="1.0" standalone="no"?><!DOCTYPE svg PUBLIC "-//W3C//DTD SVG 1.1//EN" "http://www.w3.org/Graphics/SVG/1.1/DTD/svg11.dtd"><svg t="1692643690852" class="icon" viewBox="0 0 1024 1024" version="1.1" xmlns="http://www.w3.org/2000/svg" p-id="1302" xmlns:xlink="http://www.w3.org/1999/xlink" width="128" height="128"><path d="M467 962H174.5c-62.1 0-112.5-50.4-112.5-112.5V174.5C62 112.4 112.4 62 174.5 62h540c62.1 0 112.5 50.4 112.5 112.5v202.5c0 12.6-9.9 22.5-22.5 22.5s-22.5-9.9-22.5-22.5V174.5c0-37.35-30.15-67.5-67.5-67.5H174.5c-37.35 0-67.5 30.15-67.5 67.5v675c0 37.35 30.15 67.5 67.5 67.5h292.5c12.6 0 22.5 9.9 22.5 22.5s-9.9 22.5-22.5 22.5z" fill="" p-id="1303"></path><path d="M669.5 287H219.5c-12.6 0-22.5-9.9-22.5-22.5s9.9-22.5 22.5-22.5h450c12.6 0 22.5 9.9 22.5 22.5s-9.9 22.5-22.5 22.5zM534.5 452.15H219.5c-12.6 0-22.5-9.9-22.5-22.5s9.9-22.5 22.5-22.5h315c12.6 0 22.5 9.9 22.5 22.5s-9.9 22.5-22.5 22.5zM444.5 616.85H219.5c-12.6 0-22.5-9.9-22.5-22.5s9.9-22.5 22.5-22.5h225c12.6 0 22.5 9.9 22.5 22.5s-9.9 22.5-22.5 22.5zM489.5 782H219.5c-12.6 0-22.5-9.9-22.5-22.5s9.9-22.5 22.5-22.5h270c12.6 0 22.5 9.9 22.5 22.5s-9.9 22.5-22.5 22.5zM759.5 714.5c-62.1 0-112.5-50.4-112.5-112.5s50.4-112.5 112.5-112.5 112.5 50.4 112.5 112.5-50.4 112.5-112.5 112.5z m0-180c-37.35 0-67.5 30.15-67.5 67.5s30.15 67.5 67.5 67.5 67.5-30.15 67.5-67.5-30.15-67.5-67.5-67.5zM894.5 962h-270c-37.35 0-67.5-30.15-67.5-67.5s30.15-67.5 67.5-67.5h270c37.35 0 67.5 30.15 67.5 67.5s-30.15 67.5-67.5 67.5z m-270-90c-12.6 0-22.5 9.9-22.5 22.5s9.9 22.5 22.5 22.5h270c12.6 0 22.5-9.9 22.5-22.5s-9.9-22.5-22.5-22.5h-270z" fill="" p-id="1304"></path><path d="M624.5 872c-3.6 0-7.65-0.9-11.25-3.15-10.8-6.3-14.4-19.8-8.55-30.6l90-157.5c6.3-10.8 19.8-14.4 30.6-8.55 10.8 6.3 14.4 19.8 8.55 30.6l-90 157.5c-4.05 7.65-11.7 11.7-19.35 11.7zM894.5 872c-7.65 0-15.3-4.05-19.35-11.25l-90-157.5c-6.3-10.8-2.25-24.75 8.55-30.6 10.8-6.3 24.75-2.25 30.6 8.55l90 157.5c6.3 10.8 2.25 24.75-8.55 30.6-3.6 1.8-7.65 2.7-11.25 2.7z" fill="" p-id="1305"></path></svg>