<?xml version="1.0" standalone="no"?><!DOCTYPE svg PUBLIC "-//W3C//DTD SVG 1.1//EN" "http://www.w3.org/Graphics/SVG/1.1/DTD/svg11.dtd"><svg t="1688731582977" class="icon" viewBox="0 0 1024 1024" version="1.1" xmlns="http://www.w3.org/2000/svg" p-id="993" width="512" height="512" xmlns:xlink="http://www.w3.org/1999/xlink"><path d="M863.872 640v40.704c14.976 4.48 28.928 11.712 41.152 21.248l8.832 7.68 35.264-20.48 35.584 61.632-35.328 20.352c3.648 15.168 4.352 30.848 2.176 46.272l-2.176 11.456 35.328 20.352-35.584 61.568-35.264-20.352c-11.328 10.688-24.576 19.2-38.976 24.96l-11.008 3.84V960h-71.04v-40.704a123.904 123.904 0 0 1-41.28-21.312l-8.704-7.552-35.264 20.352-35.584-61.568 35.264-20.352a124.8 124.8 0 0 1-2.176-46.208l2.176-11.52-35.264-20.352 35.584-61.568 35.2 20.352c11.392-10.688 24.576-19.2 39.04-24.96l10.944-3.84V640h71.104z m51.328-352.512a32 32 0 0 1 12.8 25.6v284.48a224 224 0 0 0-281.92 327.424l-59.968 19.84a32 32 0 0 1-42.112-30.4V407.232a32 32 0 0 1 23.04-30.72l320-94.08a32 32 0 0 1 28.16 5.12zM136.96 282.752l320.128 93.312a32 32 0 0 1 23.04 30.72v507.584a32 32 0 0 1-42.112 30.4l-320.128-106.688a32 32 0 0 1-21.888-30.336V313.472a32 32 0 0 1 40.96-30.72z m691.392 463.936a53.312 53.312 0 1 0 0 106.624 53.312 53.312 0 0 0 0-106.624zM515.84 128.448l323.072 81.152c15.808 3.968 16.256 26.304 0.64 30.912L516.48 335.104a16 16 0 0 1-8.96 0L184.384 240.512c-15.616-4.608-15.168-26.88 0.64-30.912l323.008-81.152h0.128a16 16 0 0 1 7.744 0z" p-id="994"></path></svg>