<?xml version="1.0" standalone="no"?><!DOCTYPE svg PUBLIC "-//W3C//DTD SVG 1.1//EN" "http://www.w3.org/Graphics/SVG/1.1/DTD/svg11.dtd"><svg t="1689869989660" class="icon" viewBox="0 0 1024 1024" version="1.1" xmlns="http://www.w3.org/2000/svg" p-id="1983" xmlns:xlink="http://www.w3.org/1999/xlink" width="128" height="128"><path d="M537.6 927.857778H191.715556c-10.808889 0-19.911111-9.102222-19.911112-19.911111V109.795556c0-10.808889 9.102222-19.911111 19.911112-19.911112h657.635555c10.808889 0 19.911111 9.102222 19.911111 19.911112v450.56c17.635556 7.395556 34.702222 17.066667 50.062222 27.875555v-0.568889c0.568889 0 0.568889 0.568889 1.137778 0.568889V79.644444c0-22.186667-17.635556-39.822222-39.822222-39.822222H160.426667c-22.186667 0-39.822222 17.635556-39.822223 39.822222v857.884445c0 22.186667 17.635556 39.822222 39.822223 39.822222h413.582222c-13.653333-15.36-25.6-31.857778-35.84-50.062222h-0.568889z m215.04-362.382222c-120.604444 0-218.453333 97.848889-218.453333 218.453333s97.848889 218.453333 218.453333 218.453333 218.453333-97.848889 218.453333-218.453333-97.28-218.453333-218.453333-218.453333z m0 385.137777c-92.16 0-166.684444-74.524444-166.684444-166.684444s74.524444-166.684444 166.684444-166.684445c92.16 0 166.684444 74.524444 166.684444 166.684445s-74.524444 166.684444-166.684444 166.684444z m12.515556-267.946666h-50.062223v164.977777h142.791111v-50.062222h-92.728888V682.666667zM733.866667 226.417778H304.924444c-13.653333 0-25.031111 11.377778-25.031111 25.031111s11.377778 25.031111 25.031111 25.031111H733.866667c13.653333 0 25.031111-11.377778 25.031111-25.031111s-11.377778-25.031111-25.031111-25.031111z m25.031111 179.768889c0-13.653333-11.377778-25.031111-25.031111-25.031111H304.924444c-13.653333 0-25.031111 11.377778-25.031111 25.031111s11.377778 25.031111 25.031111 25.031111H733.866667c13.653333 0 25.031111-11.377778 25.031111-25.031111zM304.924444 535.893333c-13.653333 0-25.031111 11.377778-25.031111 25.031111s11.377778 25.031111 25.031111 25.031112H580.266667c13.653333 0 25.031111-11.377778 25.031111-25.031112s-11.377778-25.031111-25.031111-25.031111H304.924444z" p-id="1984"></path></svg>