<?xml version="1.0" standalone="no"?><!DOCTYPE svg PUBLIC "-//W3C//DTD SVG 1.1//EN" "http://www.w3.org/Graphics/SVG/1.1/DTD/svg11.dtd"><svg t="1689841420893" class="icon" viewBox="0 0 1024 1024" version="1.1" xmlns="http://www.w3.org/2000/svg" p-id="1039" xmlns:xlink="http://www.w3.org/1999/xlink" width="1024" height="1024"><path d="M446.30322646 890.11100146h-256.21036698c-35.18529258 0-63.70353106-28.52696513-63.70353106-63.70353193V189.39833633c0-35.18529258 28.51823848-63.70353106 63.70353106-63.70353193h573.30560302c35.18529258 0 63.70353106 28.51823848 63.70353106 63.70353193v217.98824854c22.9332709 10.06166777 43.89435088 23.31723779 63.70353105 38.29193086V189.39833633c0-70.35313271-57.04520362-127.39833633-127.40706211-127.39833633H190.10158614c-70.36185937 0-127.40706299 57.03647695-127.40706211 127.39833633v637.0091332c0 70.36185937 57.04520362 127.40706299 127.39833545 127.40706299h320.22805341a321.10681289 321.10681289 0 0 1-64.01768643-63.70353106z m0 0" fill="#323333" p-id="1040"></path><path d="M714.4340082 481.04706465c-132.8175 0-240.47646768 107.66769433-240.47646768 240.47646767s107.66769433 240.47646768 240.47646768 240.47646768 240.47646768-107.66769433 240.47646768-240.47646768-107.66769433-240.47646768-240.47646768-240.47646767z m0 420.71382861c-99.56076592 0-180.26354092-80.71150166-180.26354091-180.26354003s80.71150166-180.26354092 180.26354091-180.26354093S894.7062749 621.94531396 894.7062749 721.49735323c-0.00872666 99.55203925-80.71150166 180.26354092-180.2722667 180.26354003z m0 0" fill="#323333" p-id="1041"></path><path d="M815.55681904 699.63744219h-68.31985517v-34.15556426c0-18.8667167-15.29757422-34.16429092-34.1642918-34.16429092-18.8667167 0-34.16429092 15.28884756-34.16429092 34.16429092v68.31985605c0 18.8667167 15.29757422 34.16429092 34.16429092 34.16429092H815.55681904c18.8667167 0 34.15556425-15.29757422 34.15556514-34.16429092 0-18.8667167-15.29757422-34.16429092-34.15556514-34.16429179zM464.18384815 220.3250917a33.96358125 33.96358125 0 0 0-48.03071749 0L302.33324638 334.14497685l-45.5698415-45.5698415c-12.81051826-12.81051826-33.57961523-12.81051826-46.38140683 0-12.81051826 12.81051826-12.81051826 33.57961523 0 46.3901335l63.59881289 63.60753954c1.43987432 2.46087597 2.59177412 4.99156435 4.72104316 7.10338009 7.10338008 7.03356768 16.39711406 10.04421445 25.55122413 9.69515332a32.87276719 32.87276719 0 0 0 23.29105869-9.63406758c0.75920625-0.75047959 1.09081406-1.71039638 1.71039638-2.60050078L464.18384815 268.28599678a33.90424102 33.90424102 0 0 0 9.94822294-23.98045254c0-8.99703281-3.57786914-17.61882627-9.94822294-23.98045254z m112.24911269 58.48507793c-18.8667167 0-34.16429092 15.28884756-34.16429092 34.15556425s15.29757422 34.16429092 34.16429092 34.16429093h204.95956728c18.8667167 0 34.15556425-15.28884756 34.15556426-34.16429093 0-18.8667167-15.28884756-34.15556425-34.15556425-34.15556425H576.43296084zM416.16185732 459.44022324L302.33324638 573.26883506l-45.5698415-45.56984151c-12.81051826-12.80179161-33.57961523-12.80179161-46.38140683 0-12.81051826 12.81051826-12.81051826 33.57961523 0 46.3901335l63.59881289 63.60753955c1.43987432 2.46087597 2.59177412 4.99156435 4.72104316 7.10338008 7.10338008 7.03356768 16.39711406 10.04421445 25.55122413 9.70387998a32.87276719 32.87276719 0 0 0 23.29105869-9.63406846c0.75920625-0.75047959 1.09081406-1.71039638 1.71039638-2.59177323l134.92931485-134.86822999c11.68479844-13.49118633 10.95177129-33.72796582-1.68421641-46.34650019-12.62726191-12.61853526-32.86404053-13.32538242-46.33777442-1.62313154z m0 0" fill="#323333" p-id="1042"></path></svg>